# xmcd
#
# Track frame offsets:
#	150
#	15631
#	26852
#	41834
#	57761
#	73414
#	84366
#	98488
#	115924
#	132747
#	145579
#	158988
#	171792
#	189666
#	201095
#	216304
#	235784
#	250558
#	266222
#	283018
#	297432
#	312439
#	329526
#	342303
#
# Disc length: 4743 seconds
#
# Revision: 1
# Processed by: cddbd v1.5.2PL0 Copyright (c) Steve Scherf et al.
# Submitted via: audiograbber 1.83.01
#
DISCID=76128518
DTITLE=Diamond Back of Texas - Diamond Back of Texas 017
DYEAR=2007
DGENRE=Country
TTITLE0=Second Fiddle  - Chris Anderson
TTITLE1=It´s Just About Time  - Phillip Clarkson
TTITLE2=Right Or Wrong  - Marilyn Mcconnell
TTITLE3=Please Tell Me What To Do  - Suzie Merwine
TTITLE4=When Two Become One  - William Ray
TTITLE5=Someone Loves You  - Lenaye Pearson
TTITLE6=It´s All Over Now  - Bruce Greaves
TTITLE7=The Flag Has Disappeared  - Vernon Oxford
TTITLE8=I´ll Be A Long Time  - Johnny Dollar
TTITLE9=I Thought I Heard You Calling My Name  - Dick Shuey
TTITLE10=Don´t Blame The Book  - Mitch Snow
TTITLE11=What Gonna Happend (to All Us Old Hippie) - Tom Hunnicutt
TTITLE12=Angel Of The Morning - Dr Fry´s Texas Medicine Band
TTITLE13=Doing It All Over Again  - Andrea Morton 
TTITLE14=The Patriotic Train  - William Ray
TTITLE15=Thank You My Lord  - William Ray
TTITLE16=Always And Forever  - The Paramont Group
TTITLE17=Forty Miles Down The Road  - Stan Lowhon
TTITLE18=Dream In Blue  - East Craft
TTITLE19=My Youth Back  - Fraser Newcombe
TTITLE20=The Legend Of Johnny Gold  - The Paramont Group
TTITLE21=The Wise Man Said To Me  - James Stevens
TTITLE22=The Little Trompet  - The Paramont Group
TTITLE23=Don´t Take Your Guns To Town  - B. Jeff Stone
EXTD=
EXTT0=
EXTT1=
EXTT2=
EXTT3=
EXTT4=
EXTT5=
EXTT6=
EXTT7=
EXTT8=
EXTT9=
EXTT10=
EXTT11=
EXTT12=
EXTT13=
EXTT14=
EXTT15=
EXTT16=
EXTT17=
EXTT18=
EXTT19=
EXTT20=
EXTT21=
EXTT22=
EXTT23=
PLAYORDER=
